<?xml version="1.0" encoding="UTF-8" standalone="no"?><!DOCTYPE svg PUBLIC "-//W3C//DTD SVG 1.1//EN" "http://www.w3.org/Graphics/SVG/1.1/DTD/svg11.dtd"><svg width="100%" height="100%" viewBox="0 0 1000 1000" version="1.1" xmlns="http://www.w3.org/2000/svg" xmlns:xlink="http://www.w3.org/1999/xlink" xml:space="preserve" xmlns:serif="http://www.serif.com/" style="fill-rule:evenodd;clip-rule:evenodd;stroke-linejoin:round;stroke-miterlimit:2;"><rect id="Page-1" serif:id="Page 1" x="0" y="0" width="1000" height="1000" style="fill:none;"/><g id="Layer-1" serif:id="Layer 1"><path d="M92.168,689.335l19.546,10.777l-1.531,2.777l-16.497,-9.089l-5.089,9.233l14.757,8.132l-1.536,2.783l-14.752,-8.135l-5.217,9.463l16.685,9.196l-1.533,2.783l-19.737,-10.881l14.904,-27.039Z" style="fill:#0059aa;fill-rule:nonzero;"/><path d="M133.642,710.194l3.049,1.172l9.301,30.065l8.859,-23.103l3.17,1.212l-11.053,28.83l-2.595,-0.995l-9.552,-30.774l-9.058,23.638l-3.174,-1.215l11.053,-28.83Z" style="fill:#0059aa;fill-rule:nonzero;"/><path d="M220.422,753.73c5.013,1.034 8.845,-0.966 9.668,-4.941l0.019,-0.085c0.891,-4.319 -1.883,-7.234 -6.765,-8.246l-7.647,-1.578l-2.745,13.305l7.47,1.545Zm-7.488,-18.711l11.321,2.341c6.826,1.409 10.568,5.967 9.337,11.927l-0.02,0.089c-1.345,6.522 -7.484,8.765 -13.92,7.436l-7.34,-1.516l-2.208,10.67l-3.414,-0.707l6.244,-30.24Z" style="fill:#0059aa;fill-rule:nonzero;"/><path d="M270.113,760.814c4.592,0.585 8.176,-1.361 8.676,-5.299l0.009,-0.089c0.48,-3.762 -2.119,-6.404 -7.065,-7.033l-9.45,-1.203l-1.579,12.429l9.409,1.195Zm-10.879,-17.256l13.17,1.674c3.763,0.476 6.639,1.999 8.319,4.17c1.298,1.678 1.898,3.931 1.596,6.34l-0.013,0.087c-0.646,5.076 -4.522,7.605 -9.449,7.87l7.815,13.707l-4.241,-0.538l-7.373,-13.03l-8.751,-1.114l-1.511,11.903l-3.459,-0.44l3.897,-30.629Z" style="fill:#0059aa;fill-rule:nonzero;"/><path d="M333.649,765.771l0.004,-0.091c0.37,-7.003 -4.436,-12.999 -11.482,-13.37c-7.049,-0.373 -12.369,4.998 -12.74,12.001l-0.002,0.089c-0.37,7.005 4.437,13.001 11.484,13.372c7.044,0.372 12.366,-4.999 12.736,-12.001m-27.835,-1.474l0.002,-0.088c0.452,-8.498 7.232,-15.605 16.612,-15.109c9.377,0.495 15.291,8.182 14.842,16.684l-0.006,0.087c-0.449,8.499 -7.23,15.609 -16.609,15.111c-9.382,-0.494 -15.295,-8.182 -14.841,-16.685" style="fill:#0059aa;fill-rule:nonzero;"/><path d="M403.826,777.314c7.793,-0.406 12.495,-5.95 12.139,-12.775l-0.005,-0.09c-0.356,-6.823 -5.613,-11.935 -13.405,-11.529l-7.222,0.379l1.273,24.393l7.22,-0.378Zm-12.137,-27.051l10.698,-0.557c9.69,-0.506 16.726,5.794 17.179,14.467l0.004,0.091c0.455,8.674 -5.886,15.76 -15.576,16.263l-10.698,0.561l-1.607,-30.825Z" style="fill:#0059aa;fill-rule:nonzero;"/><path d="M442.45,746.789l22.191,-2.425l0.343,3.16l-18.722,2.044l1.144,10.479l16.75,-1.828l0.347,3.154l-16.754,1.833l1.175,10.741l18.944,-2.067l0.343,3.157l-22.408,2.446l-3.353,-30.694Z" style="fill:#0059aa;fill-rule:nonzero;"/><path d="M518.406,735.867l3.414,-0.692l5.492,27.102l17.035,-3.452l0.638,3.156l-20.446,4.146l-6.133,-30.26Z" style="fill:#0059aa;fill-rule:nonzero;"/><path d="M585.311,740.383l-10.822,-13.411l-2.769,17.027l13.591,-3.616Zm-13.398,-16.923l3.153,-0.842l21.586,26.429l-3.624,0.963l-5.59,-6.955l-16.235,4.318l-1.441,8.826l-3.449,0.919l5.6,-33.658Z" style="fill:#0059aa;fill-rule:nonzero;"/><path d="M637.357,703.281l3.615,-1.419l19.962,20.726l0.515,-28.788l3.492,-1.375l-0.967,33.799l-2.873,1.133l-23.744,-24.076Z" style="fill:#0059aa;fill-rule:nonzero;"/><path d="M703.252,708.9l-3.128,1.481l-13.214,-27.91l3.128,-1.481l13.214,27.91Z" style="fill:#0059aa;"/><path d="M736.908,687.822c6.781,-3.866 8.485,-10.927 5.102,-16.866l-0.045,-0.077c-3.387,-5.937 -10.375,-8.145 -17.157,-4.276l-6.284,3.581l12.099,21.221l6.285,-3.583Zm-23.003,-18.711l9.31,-5.306c8.428,-4.807 17.546,-2.339 21.849,5.204l0.043,0.082c4.302,7.542 1.821,16.723 -6.609,21.526l-9.305,5.311l-15.288,-26.817Z" style="fill:#0059aa;fill-rule:nonzero;"/><path d="M784.121,647.445l-14.954,-8.568l3.602,16.875l11.352,-8.307Zm-18.629,-10.899l2.635,-1.932l29.704,16.786l-3.024,2.213l-7.732,-4.45l-13.56,9.919l1.863,8.745l-2.885,2.108l-7.001,-33.389Z" style="fill:#0059aa;fill-rule:nonzero;"/><path d="M226.342,537.847l-55.066,63.928l483.001,-0l55.073,-63.928l-483.008,-0Z" style="fill:#ed1c24;"/><path d="M228.079,552.623l7.406,-0l0,31.84l9.785,-0l0,6.285l-17.191,-0l-0,-38.125Z" style="fill:#fff;fill-rule:nonzero;"/><path d="M262.234,576.269l-1.239,-7.979c-0.403,-2.314 -0.9,-6.102 -1.244,-8.651l-0.17,-0c-0.4,2.549 -0.957,6.508 -1.357,8.706l-1.416,7.924l5.426,0Zm-6.16,5.765l-1.696,8.714l-7.182,-0l8.255,-38.125l8.88,-0l7.407,38.125l-7.178,-0l-1.645,-8.714l-6.841,-0Z" style="fill:#fff;fill-rule:nonzero;"/><path d="M283.339,585.203c0.45,0.116 0.957,0.116 1.642,0.116c2.989,0 5.485,-1.817 5.485,-5.713c-0,-3.787 -2.606,-5.771 -5.543,-5.829l-1.584,0l-0,11.426Zm-0,-16.913l1.584,-0c2.66,-0 4.688,-2.257 4.688,-5.371c-0,-2.773 -1.3,-4.915 -4.354,-4.915c-0.79,0 -1.468,0.058 -1.918,0.221l-0,10.065Zm-7.416,-15.101c2.274,-0.509 5.208,-0.728 8.43,-0.728c3.562,-0 7.016,0.45 9.669,2.713c2.034,1.695 2.887,4.237 2.887,6.903c-0,3.384 -1.756,6.669 -5.54,8.305l0,0.23c4.411,1.241 6.784,4.922 6.784,9.107c0,3.166 -1.015,5.6 -2.83,7.466c-2.258,2.483 -6.106,3.84 -12.501,3.84c-2.829,-0 -5.199,-0.165 -6.899,-0.391l0,-37.445Z" style="fill:#fff;fill-rule:nonzero;"/><path d="M309.068,571.688c0,8.651 1.642,13.061 4.64,13.061c3.109,0 4.3,-5.658 4.3,-13.404c0,-6.669 -1.021,-12.726 -4.355,-12.726c-2.943,-0 -4.585,4.864 -4.585,13.069m16.684,-0.684c0,14.366 -5.088,20.195 -12.328,20.195c-8.66,-0 -12.041,-9.165 -12.041,-19.623c0,-10.406 4.124,-19.403 12.555,-19.403c9.216,0 11.814,10.122 11.814,18.831" style="fill:#fff;fill-rule:nonzero;"/><path d="M337.853,569.819l1.306,-0c3.223,-0 5.093,-2.599 5.093,-5.943c-0,-3.213 -1.306,-5.542 -4.639,-5.65c-0.622,-0 -1.36,0.055 -1.76,0.219l0,11.374Zm-7.398,-16.631c2.312,-0.448 5.254,-0.727 8.083,-0.727c4.074,0 7.686,0.556 10.172,2.828c2.327,2.088 2.998,4.63 2.998,7.914c0,4.073 -1.971,7.744 -5.875,9.559l-0,0.115c2.605,1.012 3.904,3.441 4.636,7.514c0.742,4.242 1.756,8.944 2.428,10.357l-7.746,0c-0.458,-1.08 -1.299,-4.922 -1.86,-9.115c-0.679,-4.741 -1.866,-6.098 -4.358,-6.098l-1.08,-0l0,15.213l-7.398,0l-0,-37.56Z" style="fill:#fff;fill-rule:nonzero;"/><path d="M369.247,576.269l-1.242,-7.979c-0.392,-2.314 -0.906,-6.102 -1.251,-8.651l-0.165,-0c-0.392,2.549 -0.964,6.508 -1.357,8.706l-1.411,7.924l5.426,0Zm-6.163,5.765l-1.703,8.714l-7.177,-0l8.259,-38.125l8.876,-0l7.408,38.125l-7.179,-0l-1.644,-8.714l-6.84,-0Z" style="fill:#fff;fill-rule:nonzero;"/><path d="M384.239,559.469l-6.728,0l0,-6.846l20.922,0l-0,6.846l-6.786,0l-0,31.279l-7.408,0l0,-31.279Z" style="fill:#fff;fill-rule:nonzero;"/><path d="M407.427,571.688c-0,8.651 1.642,13.061 4.642,13.061c3.11,0 4.294,-5.658 4.294,-13.404c0,-6.669 -1.022,-12.726 -4.35,-12.726c-2.944,-0 -4.586,4.864 -4.586,13.069m16.684,-0.684c-0,14.366 -5.093,20.195 -12.33,20.195c-8.654,-0 -12.037,-9.165 -12.037,-19.623c0,-10.406 4.125,-19.403 12.548,-19.403c9.224,0 11.819,10.122 11.819,18.831" style="fill:#fff;fill-rule:nonzero;"/><path d="M436.214,569.819l1.3,-0c3.228,-0 5.092,-2.599 5.092,-5.943c0,-3.213 -1.3,-5.542 -4.634,-5.65c-0.623,-0 -1.357,0.055 -1.758,0.219l-0,11.374Zm-7.4,-16.631c2.311,-0.448 5.257,-0.727 8.085,-0.727c4.074,0 7.688,0.556 10.172,2.828c2.319,2.088 3,4.63 3,7.914c0,4.073 -1.98,7.744 -5.879,9.559l-0,0.115c2.599,1.012 3.899,3.441 4.637,7.514c0.735,4.242 1.755,8.944 2.426,10.357l-7.743,0c-0.459,-1.08 -1.302,-4.922 -1.872,-9.115c-0.667,-4.741 -1.857,-6.098 -4.346,-6.098l-1.08,-0l-0,15.213l-7.4,0l-0,-37.56Z" style="fill:#fff;fill-rule:nonzero;"/><rect x="455.382" y="552.623" width="7.418" height="38.125" style="fill:#fff;"/><path d="M475.244,571.688c0,8.651 1.642,13.061 4.636,13.061c3.107,0 4.291,-5.658 4.291,-13.404c0,-6.669 -1.014,-12.726 -4.351,-12.726c-2.934,-0 -4.576,4.864 -4.576,13.069m16.688,-0.684c0,14.366 -5.096,20.195 -12.334,20.195c-8.654,-0 -12.046,-9.165 -12.046,-19.623c0,-10.406 4.127,-19.403 12.556,-19.403c9.215,0 11.824,10.122 11.824,18.831" style="fill:#fff;fill-rule:nonzero;"/><path d="M523.886,590.176c-1.073,0.516 -3.171,0.907 -5.77,0.907c-9.73,0 -14.371,-8.03 -14.371,-18.836c-0,-14.358 7.979,-19.958 15.386,-19.958c2.599,0 4.414,0.507 5.148,1.016l-1.248,6.223c-0.846,-0.394 -1.798,-0.74 -3.445,-0.74c-4.184,0 -7.978,3.625 -7.978,13.064c-0,9.109 3.453,12.665 7.978,12.665c1.246,0 2.657,-0.276 3.561,-0.557l0.739,6.216Z" style="fill:#fff;fill-rule:nonzero;"/><path d="M527.961,552.623l7.401,-0l-0,31.84l9.784,-0l0,6.285l-17.185,-0l0,-38.125Z" style="fill:#fff;fill-rule:nonzero;"/><path d="M561.719,544.204l-6.9,6.385l-5.258,0l4.699,-6.385l7.459,-0Zm-4.857,46.544l-7.416,0l-0,-38.124l7.416,-0l-0,38.124Z" style="fill:#fff;fill-rule:nonzero;"/><path d="M563.474,590.748l0,-38.125l6.786,0l5.884,14.931c1.135,2.942 3.001,7.864 4.074,11.143l0.114,0c-0.229,-4.015 -0.741,-10.637 -0.741,-17.644l-0,-8.43l6.506,0l-0,38.125l-6.785,-0l-5.824,-14.479c-1.242,-3.222 -3.001,-8.038 -3.845,-11.48l-0.121,-0c0.174,3.844 0.451,9.722 0.451,17.356l0,8.603l-6.499,-0Z" style="fill:#fff;fill-rule:nonzero;"/><rect x="592.66" y="552.623" width="7.409" height="38.125" style="fill:#fff;"/><path d="M624.955,590.176c-1.081,0.516 -3.165,0.907 -5.764,0.907c-9.73,0 -14.374,-8.03 -14.374,-18.836c-0,-14.358 7.973,-19.958 15.388,-19.958c2.6,0 4.414,0.507 5.145,1.016l-1.244,6.223c-0.845,-0.394 -1.807,-0.74 -3.451,-0.74c-4.18,0 -7.978,3.625 -7.978,13.064c0,9.109 3.456,12.665 7.978,12.665c1.245,0 2.662,-0.276 3.566,-0.557l0.734,6.216Z" style="fill:#fff;fill-rule:nonzero;"/><path d="M634.179,571.688c-0,8.651 1.633,13.061 4.631,13.061c3.108,0 4.296,-5.658 4.296,-13.404c0,-6.669 -1.017,-12.726 -4.351,-12.726c-2.943,-0 -4.576,4.864 -4.576,13.069m16.687,-0.684c-0,14.366 -5.105,20.195 -12.332,20.195c-8.655,-0 -12.052,-9.165 -12.052,-19.623c0,-10.406 4.129,-19.403 12.554,-19.403c9.219,0 11.83,10.122 11.83,18.831" style="fill:#fff;fill-rule:nonzero;"/><path d="M285.78,380.384l-0,75.132l-58.472,-75.132l-36.742,-0l0,142.134l38.984,-0l-0,-77.967l60.701,77.967l34.517,-0l-0,-142.134l-38.988,-0Z" style="fill:#006cb7;"/><path d="M586.462,380.384l-32.284,89.946l-32.283,-89.946l-44.069,-0l57.669,143.139l36.551,-0l57.659,-143.139l-43.243,-0Z" style="fill:#006cb7;"/><path d="M658.951,466.473l15.821,-40.401l15.837,40.401l-31.658,-0Zm35.113,-87.095l-37.972,0l-60.503,143.139l41.417,0l10.024,-25.072l15.861,-0l0.281,-0.314l38.807,-0l10.359,25.386l42.221,0l-60.495,-143.139Z" style="fill:#006cb7;"/><path d="M379.483,462.916c5.143,13.258 19.315,20.129 33.584,20.129c13.946,-0 27.983,-6.56 33.804,-20.129c16.216,-37.818 -23.887,-51.902 -33.515,-84.581c-8.335,33.993 -48.49,46.83 -33.873,84.581" style="fill:#ed1c24;"/><path d="M421.498,377.242c22.379,12.771 36.643,36.23 36.643,63.265l0,0.407c0,1.101 -0.029,2.195 -0.084,3.285c0.263,5.974 -0.757,12.488 -3.578,19.702c-0.25,0.643 -0.509,1.285 -0.779,1.938c-6.514,15.192 -22.084,24.633 -40.634,24.633c-18.747,-0 -34.644,-9.77 -40.494,-24.879c-10.403,-26.857 3.398,-43.78 15.585,-58.714c7.274,-8.921 14.786,-18.144 17.806,-29.637c-39.921,3.642 -69.009,35.188 -69.009,73.545l-0,0.415c-0,27.042 14.273,50.501 36.659,63.263c11.392,6.495 24.884,10.229 39.686,10.229c43.859,0 76.746,-33.094 76.746,-73.907l0,-0.4c0,-38.344 -28.689,-69.522 -68.547,-73.145" style="fill:#006cb7;fill-rule:nonzero;"/><path d="M438.286,404.878c9.114,11.092 19.076,23.235 19.77,39.321c0.058,-1.091 0.085,-2.184 0.085,-3.286l0,-0.406c0,-27.034 -14.264,-50.495 -36.643,-63.264c-0.228,-0.015 -0.472,-0.028 -0.713,-0.044c3.343,10.427 10.535,19.192 17.501,27.679Z" style="fill:url(#_Linear1);fill-rule:nonzero;"/><path d="M416.855,475.272c-18.972,0 -34.356,-15.372 -34.356,-34.348c0,-0.909 0.062,-1.807 0.135,-2.703c-0.651,2.557 -1.03,5.222 -1.03,7.982c-0,17.984 14.583,32.562 32.567,32.562c10.158,-0 19.228,-4.647 25.199,-11.935c-6.036,5.25 -13.902,8.442 -22.515,8.442" style="fill:#fff;"/><path d="M441.792,435.145c-0,6.607 -5.365,11.97 -11.966,11.97c-6.612,0 -11.97,-5.363 -11.97,-11.97c0,-6.618 5.358,-11.973 11.97,-11.973c6.601,0 11.966,5.355 11.966,11.973" style="fill:#fff;"/><path d="M805.911,284.053c-78.347,-51.016 -200.494,-76.331 -342.847,-60.415c-237.815,26.599 -452.407,157.133 -434.677,292.743c17.032,130.226 240.965,197.54 487.732,146.01c-89.177,14.289 -173.507,11.503 -242.315,-4.998c-93.772,-22.493 -158.67,-70.454 -167.188,-135.619c-16.225,-124.274 179.607,-243.799 396.695,-268.078c122.45,-13.695 228.526,6.156 300.2,47.645c-0,-0.158 -0.023,-0.302 -0.023,-0.459c0,-3.926 0.406,-7.756 1.123,-11.478c0.343,-1.824 0.791,-3.594 1.3,-5.351" style="fill:#006cb7;fill-rule:nonzero;"/><path d="M864.057,395.091c-50.365,-102.657 -247.34,-152.091 -461.887,-111.009c-6.401,1.228 -12.758,2.528 -19.048,3.877c96.725,-16.047 188.581,-11.926 261.043,8.16c79.756,22.121 136.016,63.592 149.415,118.853c26.308,108.616 -123.05,229.376 -333.608,269.679c-202.83,38.806 -388.397,-11.159 -425.277,-111.984c-0.272,-0.778 -0.574,-1.555 -0.846,-2.334c0.511,3.313 1.132,6.622 1.933,9.907c28.876,119.303 239.733,180.118 470.99,135.868c171.971,-32.916 306.737,-114.701 352.67,-203.548c0.042,-0.102 0.097,-0.187 0.165,-0.3c14.632,-26.615 53.276,-143.319 113.032,-160.832c-23.148,4.111 -76.81,16.172 -108.582,43.663" style="fill:#87c540;fill-rule:nonzero;"/><path d="M897.214,331.869c0.698,-1.071 1.385,-2.138 1.994,-3.257c12.549,-23.402 3.708,-52.594 -19.78,-65.19c-10.675,-5.728 -22.517,-6.996 -33.472,-4.52c12.231,-5.021 26.537,-4.749 39.1,2.002c22.257,11.948 30.656,39.593 18.737,61.794c-1.838,3.392 -4.066,6.441 -6.579,9.171m-33.143,-81.031c-27.646,-0 -50.046,22.413 -50.046,50.044c-0,27.63 22.4,50.042 50.046,50.042c27.627,0 50.027,-22.412 50.027,-50.042c0,-27.631 -22.4,-50.044 -50.027,-50.044" style="fill:#87c540;fill-rule:nonzero;"/></g><defs><linearGradient id="_Linear1" x1="0" y1="0" x2="1" y2="0" gradientUnits="userSpaceOnUse" gradientTransform="matrix(37.3564,0,0,37.3564,420.785,410.699)"><stop offset="0" style="stop-color:#2a7fc2;stop-opacity:1"/><stop offset="1" style="stop-color:#0059aa;stop-opacity:1"/></linearGradient></defs></svg>